<svg width="28.000000" height="28.000000" viewBox="0 0 28 28" fill="none" xmlns="http://www.w3.org/2000/svg" xmlns:xlink="http://www.w3.org/1999/xlink">
	<desc>
			Created with Pixso.
	</desc>
	<defs>
		<clipPath id="clip149_9">
			<rect id="画板 405" width="100.000000" height="100.000000" transform="translate(-31.000000 -33.000000)" fill="white" fill-opacity="0"/>
		</clipPath>
		<clipPath id="clip119_96">
			<rect id="svg" width="28.000000" height="28.000000" fill="white" fill-opacity="0"/>
		</clipPath>
	</defs>
	<g clip-path="url(#clip119_96)">
		<rect id="画板 405" width="100.000000" height="100.000000" transform="translate(-31.000000 -33.000000)" fill="#FFFFFF" fill-opacity="1.000000"/>
		<g clip-path="url(#clip149_9)">
			<path id="path" d="M16.04 14.04C17.55 13.27 18.58 11.71 18.58 9.91C18.58 7.36 16.51 5.28 13.96 5.28C11.4 5.28 9.33 7.36 9.33 9.91C9.33 11.71 10.36 13.27 11.87 14.04C9.25 14.91 7.36 17.39 7.36 20.29C7.36 20.6 7.61 20.85 7.92 20.85C8.23 20.85 8.48 20.6 8.48 20.29C8.48 17.28 10.94 14.82 13.96 14.82C16.97 14.82 19.43 17.28 19.43 20.29C19.43 20.6 19.68 20.85 19.99 20.85C20.3 20.85 20.55 20.6 20.55 20.29C20.55 17.39 18.66 14.91 16.04 14.04ZM10.45 9.91C10.45 7.98 12.02 6.4 13.96 6.4C15.89 6.4 17.46 7.98 17.46 9.91C17.46 11.84 15.89 13.42 13.96 13.42C12.02 13.42 10.45 11.84 10.45 9.91Z" fill="#272636" fill-opacity="1.000000" fill-rule="nonzero"/>
			<path id="path" d="M22.63 5.36C20.33 3.05 17.26 1.78 14 1.78C10.73 1.78 7.66 3.05 5.36 5.36C3.05 7.66 1.78 10.73 1.78 14C1.78 17.26 3.05 20.33 5.36 22.63C7.66 24.94 10.73 26.21 14 26.21C17.26 26.21 20.33 24.94 22.63 22.63C24.94 20.33 26.21 17.26 26.21 14C26.21 10.73 24.94 7.66 22.63 5.36ZM14 25.09C7.88 25.09 2.9 20.11 2.9 14C2.9 7.88 7.88 2.9 14 2.9C20.11 2.9 25.09 7.88 25.09 14C25.09 20.11 20.11 25.09 14 25.09Z" fill="#272636" fill-opacity="1.000000" fill-rule="nonzero"/>
		</g>
	</g>
</svg>
