<svg width="28.000000" height="28.000000" viewBox="0 0 28 28" fill="none" xmlns="http://www.w3.org/2000/svg" xmlns:xlink="http://www.w3.org/1999/xlink">
	<desc>
			Created with Pixso.
	</desc>
	<defs>
		<clipPath id="clip119_121">
			<rect id="svg" width="28.000000" height="28.000000" fill="white" fill-opacity="0"/>
		</clipPath>
	</defs>
	<g clip-path="url(#clip119_121)">
		<path id="path" d="M14 25.21C13.84 25.21 13.7 25.15 13.59 25.04L10.13 21.56C10.09 21.51 5.65 17.04 5.01 16.41C3.13 14.53 2.02 12.42 1.81 10.31C1.61 8.2 2.33 6.2 3.86 4.67C5.36 3.18 7.19 2.55 9.14 2.86C10.76 3.12 12.43 4.01 14 5.46C15.56 4.01 17.23 3.12 18.85 2.86C20.8 2.55 22.63 3.18 24.13 4.67C25.66 6.2 26.38 8.2 26.17 10.31C25.97 12.42 24.86 14.53 22.98 16.41C21.59 17.8 14.47 24.97 14.4 25.04C14.29 25.15 14.15 25.21 14 25.21ZM8.17 3.92C6.88 3.92 5.71 4.45 4.67 5.48C3.37 6.78 2.78 8.41 2.95 10.19C3.14 12.04 4.13 13.91 5.82 15.6C6.46 16.24 10.9 20.71 10.95 20.75L14 23.83C15.53 22.28 20.97 16.8 22.17 15.6C23.86 13.91 24.85 12.04 25.04 10.19C25.21 8.41 24.62 6.78 23.32 5.48C22.07 4.24 20.63 3.73 19.03 3.99C17.5 4.23 15.9 5.15 14.4 6.66C14.29 6.76 14.15 6.82 14 6.82C13.84 6.82 13.7 6.76 13.59 6.66C12.09 5.15 10.49 4.23 8.96 3.99C8.69 3.95 8.43 3.92 8.17 3.92Z" fill="#272636" fill-opacity="1.000000" fill-rule="nonzero"/>
	</g>
</svg>
