<svg width="28.000000" height="28.000000" viewBox="0 0 28 28" fill="none" xmlns="http://www.w3.org/2000/svg" xmlns:xlink="http://www.w3.org/1999/xlink">
	<desc>
			Created with Pixso.
	</desc>
	<defs>
		<clipPath id="clip158_12">
			<rect id="红色爱心" width="28.000000" height="28.000000" fill="white" fill-opacity="0"/>
		</clipPath>
	</defs>
	<g clip-path="url(#clip158_12)">
		<path id="path" d="M14 25.21C13.84 25.21 13.7 25.15 13.59 25.04L10.13 21.56C10.09 21.51 5.65 17.04 5.01 16.41C3.13 14.53 2.02 12.42 1.81 10.31C1.61 8.2 2.33 6.2 3.86 4.67C5.36 3.18 7.19 2.55 9.14 2.86C10.76 3.12 12.43 4.01 14 5.46C15.56 4.01 17.23 3.12 18.85 2.86C20.8 2.55 22.63 3.18 24.13 4.67C25.66 6.2 26.38 8.2 26.17 10.31C25.97 12.42 24.86 14.53 22.98 16.41C21.59 17.8 14.47 24.97 14.4 25.04C14.29 25.15 14.15 25.21 14 25.21Z" fill="#FF0000" fill-opacity="1.000000" fill-rule="nonzero"/>
	</g>
</svg>
