<svg width="33.000000" height="33.000000" viewBox="0 0 33 33" fill="none" xmlns="http://www.w3.org/2000/svg" xmlns:xlink="http://www.w3.org/1999/xlink">
	<desc>
			Created with Pixso.
	</desc>
	<defs>
		<clipPath id="clip155_142">
			<rect id="svg" width="33.000000" height="33.000000" fill="white" fill-opacity="0"/>
		</clipPath>
	</defs>
	<g clip-path="url(#clip155_142)">
		<path id="path" d="M29.76 29.12L23.53 25.37C23.35 25.27 23.14 25.25 22.95 25.33L15.4 28.54L3.68 19.18C3.4 18.96 3 19 2.78 19.28C2.56 19.56 2.6 19.96 2.88 20.19L7.56 23.93L2.84 28.38C2.58 28.63 2.57 29.03 2.81 29.29C2.94 29.42 3.11 29.49 3.28 29.49C3.44 29.49 3.6 29.43 3.72 29.32L8.58 24.74L14.89 29.78C15.08 29.93 15.33 29.96 15.54 29.87L23.15 26.64L29.1 30.22C29.2 30.28 29.32 30.31 29.43 30.31C29.65 30.31 29.86 30.2 29.98 30C30.16 29.7 30.06 29.3 29.76 29.12Z" fill="#272636" fill-opacity="1.000000" fill-rule="nonzero"/>
		<path id="path" d="M4.23 19.4C4.77 19.87 5.44 20.11 6.14 20.11C6.22 20.11 6.3 20.11 6.37 20.11C7.99 19.98 9.21 18.56 9.08 16.95C8.96 15.33 7.54 14.11 5.92 14.24C5.14 14.3 4.43 14.66 3.91 15.25C3.4 15.85 3.15 16.61 3.21 17.4C3.27 18.18 3.64 18.89 4.23 19.4ZM4.89 16.09C5.18 15.76 5.58 15.55 6.02 15.52C6.07 15.51 6.11 15.51 6.15 15.51C7.01 15.51 7.74 16.18 7.8 17.04C7.87 17.96 7.19 18.75 6.27 18.82C5.83 18.86 5.41 18.72 5.07 18.43C4.73 18.14 4.53 17.74 4.5 17.3C4.46 16.86 4.6 16.43 4.89 16.09Z" fill="#272636" fill-opacity="1.000000" fill-rule="nonzero"/>
		<path id="path" d="M9.58 13.15C9.92 13.25 10.28 13.05 10.37 12.71C10.44 12.49 11.22 11.09 12.74 11.52C14.1 11.91 14.02 13.83 14.02 13.91C14 14.21 14.2 14.49 14.51 14.57C14.81 14.64 15.12 14.49 15.24 14.2C15.25 14.2 15.45 13.75 15.87 13.38C16.41 12.89 17.02 12.75 17.74 12.96C18.41 13.15 18.8 13.55 18.93 14.16C19 14.51 18.96 14.84 18.94 15.02L15.86 23.11L11.25 19.16C10.86 18.82 10.35 18.65 9.83 18.69C9.31 18.73 8.84 18.97 8.5 19.37C7.8 20.18 7.9 21.42 8.71 22.12L14.43 27.03C14.8 27.34 15.25 27.5 15.7 27.5C15.95 27.5 16.19 27.45 16.42 27.36C16.48 27.35 16.54 27.33 16.6 27.31L23.23 24.33L28.69 27.33C28.79 27.39 28.89 27.41 29 27.41C29.22 27.41 29.44 27.29 29.56 27.08C29.73 26.77 29.62 26.38 29.31 26.2L23.57 23.05C23.39 22.95 23.18 22.94 22.99 23.03L17.65 25.43C17.62 24.92 17.39 24.42 16.97 24.06L16.89 24L20.05 15.72C20.07 15.68 20.1 15.64 20.12 15.59C20.12 15.59 20.33 15.11 20.75 14.73C21.25 14.26 21.81 14.13 22.47 14.32C23.12 14.5 23.52 14.91 23.68 15.55C23.81 16.1 23.72 16.6 23.72 16.6C23.66 16.92 23.85 17.23 24.16 17.33C24.46 17.43 24.8 17.29 24.94 16.99C24.97 16.92 25.76 15.26 27.23 15.68C28.71 16.11 28.54 17.96 28.53 18.03C28.49 18.36 28.71 18.66 29.03 18.73C29.08 18.74 29.12 18.75 29.17 18.75C29.44 18.75 29.69 18.57 29.78 18.3C29.8 18.22 30.39 16.37 30.17 13.94C29.98 11.67 29.02 8.47 25.6 6.04C25.31 5.83 24.91 5.9 24.71 6.19C24.5 6.48 24.57 6.88 24.86 7.09C27.27 8.8 28.62 11.13 28.89 14C28.93 14.44 28.94 14.86 28.93 15.25C28.58 14.87 28.13 14.6 27.59 14.45C26.6 14.16 25.67 14.37 24.87 15.04C24.61 14.22 24.02 13.42 22.83 13.08C21.68 12.75 20.77 13.07 20.1 13.59C19.81 12.67 19.11 12.01 18.09 11.72C16.8 11.35 15.78 11.76 15.08 12.35C14.75 11.28 14.06 10.57 13.09 10.29C12.46 10.11 11.89 10.12 11.38 10.26C12.62 8.08 14.54 6.63 17.11 5.95C19.74 5.26 22.11 5.65 22.13 5.66C22.46 5.71 22.77 5.52 22.86 5.2L23.36 3.45C23.46 3.11 23.26 2.75 22.92 2.66C22.58 2.56 22.23 2.75 22.13 3.1L21.78 4.32C20.85 4.23 18.94 4.15 16.83 4.7C14.12 5.4 10.59 7.3 9.14 12.36C9.04 12.7 9.24 13.06 9.58 13.15ZM15.27 26.05L9.55 21.14C9.27 20.91 9.24 20.48 9.48 20.2C9.59 20.07 9.75 19.99 9.93 19.97C9.95 19.97 9.97 19.97 9.98 19.97C10.14 19.97 10.3 20.03 10.42 20.13L16.14 25.04C16.41 25.28 16.45 25.7 16.21 25.98C16.09 26.11 15.93 26.2 15.75 26.21C15.58 26.22 15.4 26.17 15.27 26.05Z" fill="#272636" fill-opacity="1.000000" fill-rule="nonzero"/>
	</g>
</svg>
