<svg width="33.000000" height="33.000000" viewBox="0 0 33 33" fill="none" xmlns="http://www.w3.org/2000/svg" xmlns:xlink="http://www.w3.org/1999/xlink">
	<desc>
			Created with Pixso.
	</desc>
	<defs>
		<clipPath id="clip155_192">
			<rect id="svg" width="33.000000" height="33.000000" fill="white" fill-opacity="0"/>
		</clipPath>
	</defs>
	<g clip-path="url(#clip155_192)">
		<path id="path" d="M30.88 9.24C30.88 7.17 29.2 5.49 27.13 5.49L5.84 5.49C3.77 5.49 2.09 7.17 2.09 9.24L2.09 23.7C2.09 25.77 3.77 27.45 5.84 27.45L27.13 27.45C29.2 27.45 30.88 25.77 30.88 23.7L30.88 9.24ZM27.19 6.84C27.58 6.84 27.94 6.95 28.27 7.12L17.1 17.7C17.06 17.74 17.06 17.73 17.04 17.76C17 17.79 16.85 17.89 16.54 17.89C16.24 17.89 16.09 17.8 16.05 17.76C16.02 17.73 16.03 17.74 15.98 17.7L4.6 7.24C4.98 7 5.42 6.84 5.9 6.84L27.19 6.84ZM29.53 23.73C29.53 25.05 28.5 26.1 27.19 26.1L5.9 26.1C4.58 26.1 3.47 25.05 3.47 23.73L3.47 9.27C3.47 8.92 3.57 8.6 3.7 8.3L15.02 18.68C15.18 18.85 15.65 19.25 16.54 19.25C17.44 19.25 17.9 18.85 18.06 18.68L29.23 8.08C29.43 8.43 29.53 8.83 29.53 9.27L29.53 23.73Z" fill="#272636" fill-opacity="1.000000" fill-rule="nonzero"/>
	</g>
</svg>
