<svg width="28.000000" height="28.000000" viewBox="0 0 28 28" fill="none" xmlns="http://www.w3.org/2000/svg" xmlns:xlink="http://www.w3.org/1999/xlink">
	<desc>
			Created with Pixso.
	</desc>
	<defs>
		<clipPath id="clip119_118">
			<rect id="svg" width="28.000000" height="28.000000" fill="white" fill-opacity="0"/>
		</clipPath>
	</defs>
	<g clip-path="url(#clip119_118)">
		<path id="path" d="M23.26 2.63L4.77 2.63C3.11 2.63 1.76 3.98 1.76 5.64L1.76 17.84C1.76 19.5 3.11 20.85 4.77 20.85L7.24 20.85L10.85 25.46C10.95 25.59 11.11 25.67 11.28 25.67C11.45 25.67 11.61 25.59 11.71 25.46L15.32 20.85L23.26 20.85C24.92 20.85 26.27 19.5 26.27 17.84L26.27 5.64C26.27 3.98 24.92 2.63 23.26 2.63ZM25.18 17.84C25.18 18.9 24.32 19.76 23.26 19.76L15.05 19.76C14.89 19.76 14.73 19.83 14.62 19.97L11.28 24.23L7.93 19.97C7.83 19.83 7.67 19.76 7.5 19.76L4.77 19.76C3.71 19.76 2.85 18.9 2.85 17.84L2.85 5.64C2.85 4.58 3.71 3.73 4.77 3.73L23.26 3.73C24.32 3.73 25.18 4.58 25.18 5.64L25.18 17.84Z" fill="#272636" fill-opacity="1.000000" fill-rule="nonzero"/>
		<path id="path" d="M7.45 9.42C6.24 9.42 5.26 10.4 5.26 11.6C5.26 12.81 6.24 13.79 7.45 13.79C8.66 13.79 9.64 12.81 9.64 11.6C9.64 10.4 8.66 9.42 7.45 9.42ZM7.45 12.7C6.85 12.7 6.36 12.21 6.36 11.6C6.36 11 6.85 10.51 7.45 10.51C8.05 10.51 8.54 11 8.54 11.6C8.54 12.21 8.05 12.7 7.45 12.7Z" fill="#272636" fill-opacity="1.000000" fill-rule="nonzero"/>
		<path id="path" d="M14.02 9.42C12.81 9.42 11.83 10.4 11.83 11.6C11.83 12.81 12.81 13.79 14.02 13.79C15.22 13.79 16.2 12.81 16.2 11.6C16.2 10.4 15.22 9.42 14.02 9.42ZM14.02 12.7C13.41 12.7 12.92 12.21 12.92 11.6C12.92 11 13.41 10.51 14.02 10.51C14.62 10.51 15.11 11 15.11 11.6C15.11 12.21 14.62 12.7 14.02 12.7Z" fill="#272636" fill-opacity="1.000000" fill-rule="nonzero"/>
		<path id="path" d="M20.58 9.42C19.37 9.42 18.39 10.4 18.39 11.6C18.39 12.81 19.37 13.79 20.58 13.79C21.79 13.79 22.77 12.81 22.77 11.6C22.77 10.4 21.79 9.42 20.58 9.42ZM20.58 12.7C19.98 12.7 19.49 12.21 19.49 11.6C19.49 11 19.98 10.51 20.58 10.51C21.18 10.51 21.67 11 21.67 11.6C21.67 12.21 21.18 12.7 20.58 12.7Z" fill="#272636" fill-opacity="1.000000" fill-rule="nonzero"/>
	</g>
</svg>
