<svg width="22.000000" height="22.000000" viewBox="0 0 22 22" fill="none" xmlns="http://www.w3.org/2000/svg" xmlns:xlink="http://www.w3.org/1999/xlink">
	<desc>
			Created with Pixso.
	</desc>
	<defs>
		<clipPath id="clip119_122">
			<rect id="svg" width="22.000000" height="22.000000" fill="white" fill-opacity="0"/>
		</clipPath>
	</defs>
	<g clip-path="url(#clip119_122)">
		<path id="path" d="M20.37 12.97L20.37 19.08C20.37 19.81 19.78 20.41 19.04 20.41L2.94 20.41C2.2 20.41 1.6 19.81 1.6 19.08L1.6 2.98C1.6 2.24 2.2 1.64 2.94 1.64L6.01 1.64C7.14 1.64 7.14 0.25 6.01 0.25L2.94 0.25C1.43 0.25 0.21 1.47 0.21 2.98L0.21 19.07C0.21 20.58 1.43 21.8 2.94 21.8L19.03 21.8C20.54 21.8 21.76 20.58 21.76 19.07L21.76 12.97C21.77 12.04 20.37 12.04 20.37 12.97Z" fill="#333333" fill-opacity="1.000000" fill-rule="nonzero"/>
		<path id="path" d="M9.07 15.2L9.07 6.89C9.07 6.15 9.67 5.55 10.4 5.55L19.64 5.55L16.95 8.24C16.73 8.46 16.73 8.82 16.95 9.04C17.17 9.27 17.54 9.27 17.76 9.04L21.54 5.27C21.58 5.23 21.62 5.18 21.65 5.14C21.74 5.02 21.78 4.87 21.76 4.73C21.78 4.56 21.73 4.39 21.6 4.26L21.57 4.23L21.56 4.22L17.76 0.41C17.54 0.19 17.17 0.19 16.95 0.41C16.81 0.55 16.76 0.75 16.79 0.93C16.81 1.04 16.87 1.14 16.95 1.23L19.88 4.16L10.4 4.16C8.9 4.16 7.68 5.38 7.68 6.89L7.68 15.2C7.68 16.12 9.07 16.12 9.07 15.2Z" fill="#333333" fill-opacity="1.000000" fill-rule="nonzero"/>
	</g>
</svg>
