<svg width="33.000000" height="33.000000" viewBox="0 0 33 33" fill="none" xmlns="http://www.w3.org/2000/svg" xmlns:xlink="http://www.w3.org/1999/xlink">
	<desc>
			Created with Pixso.
	</desc>
	<defs>
		<clipPath id="clip155_180">
			<rect id="svg" width="33.000000" height="33.000000" fill="white" fill-opacity="0"/>
		</clipPath>
	</defs>
	<g clip-path="url(#clip155_180)">
		<path id="path" d="M16.51 30.88C12.67 30.88 9.05 29.38 6.33 26.66C3.61 23.95 2.12 20.33 2.12 16.49C2.12 12.64 3.61 9.02 6.33 6.31C9.05 3.59 12.67 2.09 16.51 2.09C20.36 2.09 23.97 3.59 26.69 6.31C29.41 9.02 30.91 12.64 30.91 16.49C30.91 20.33 29.41 23.95 26.69 26.66C23.97 29.38 20.36 30.88 16.51 30.88ZM16.51 3.41C9.3 3.41 3.44 9.28 3.44 16.49C3.44 23.69 9.3 29.56 16.51 29.56C23.72 29.56 29.59 23.69 29.59 16.49C29.59 9.28 23.72 3.41 16.51 3.41Z" fill="#272636" fill-opacity="1.000000" fill-rule="nonzero"/>
		<path id="path" d="M16.44 25C15.85 25 15.38 24.53 15.38 23.94L15.38 14.57C15.38 13.98 15.85 13.51 16.44 13.51C17.02 13.51 17.49 13.98 17.49 14.57L17.49 23.94C17.49 24.53 17.02 25 16.44 25Z" fill="#272636" fill-opacity="1.000000" fill-rule="nonzero"/>
		<path id="path" d="M15.02 9.55C15.02 9.64 15.03 9.74 15.05 9.83C15.07 9.93 15.1 10.02 15.13 10.1C15.17 10.19 15.21 10.28 15.27 10.36C15.32 10.44 15.38 10.51 15.45 10.58C15.51 10.64 15.59 10.7 15.67 10.76C15.75 10.81 15.83 10.85 15.92 10.89C16.01 10.93 16.1 10.96 16.19 10.97C16.28 10.99 16.38 11 16.47 11C16.57 11 16.66 10.99 16.76 10.97C16.85 10.96 16.94 10.93 17.03 10.89C17.12 10.85 17.2 10.81 17.28 10.76C17.36 10.7 17.43 10.64 17.5 10.58C17.57 10.51 17.63 10.44 17.68 10.36C17.74 10.28 17.78 10.19 17.82 10.1C17.85 10.02 17.88 9.93 17.9 9.83C17.92 9.74 17.93 9.64 17.93 9.55C17.93 9.45 17.92 9.36 17.9 9.27C17.88 9.17 17.85 9.08 17.82 8.99C17.78 8.9 17.74 8.82 17.68 8.74C17.63 8.66 17.57 8.59 17.5 8.52C17.43 8.45 17.36 8.39 17.28 8.34C17.2 8.29 17.12 8.24 17.03 8.21C16.94 8.17 16.85 8.14 16.76 8.12C16.66 8.11 16.57 8.1 16.47 8.1C16.38 8.1 16.28 8.11 16.19 8.12C16.1 8.14 16.01 8.17 15.92 8.21C15.83 8.24 15.75 8.29 15.67 8.34C15.59 8.39 15.51 8.45 15.45 8.52C15.38 8.59 15.32 8.66 15.27 8.74C15.21 8.82 15.17 8.9 15.13 8.99C15.1 9.08 15.07 9.17 15.05 9.27C15.03 9.36 15.02 9.45 15.02 9.55Z" fill="#272636" fill-opacity="1.000000" fill-rule="nonzero"/>
	</g>
</svg>
